<svg width="30" height="30" viewBox="0 0 30 30" fill="none" xmlns="http://www.w3.org/2000/svg">
<g id="Iconly/Bulk/Chat">
<g id="Chat">
<path id="Fill 1" d="M15.025 2.5C7.7625 2.5 2.5 8.425 2.5 15C2.5 17.1 3.1125 19.2625 4.1875 21.2375C4.3875 21.5625 4.4125 21.975 4.275 22.3625L3.4375 25.1625C3.25 25.8375 3.825 26.3375 4.4625 26.1375L6.9875 25.3875C7.675 25.1625 8.2125 25.45 8.85125 25.8375C10.6762 26.9125 12.95 27.4625 15 27.4625C21.2 27.4625 27.5 22.675 27.5 14.9625C27.5 8.3125 22.125 2.5 15.025 2.5Z" fill="#006298"/>
<path id="Combined Shape" fill-rule="evenodd" clip-rule="evenodd" d="M14.976 16.6125C14.0885 16.6 13.376 15.8875 13.376 15C13.376 14.125 14.101 13.4 14.976 13.4125C15.8635 13.4125 16.576 14.125 16.576 15.0125C16.576 15.8875 15.8635 16.6125 14.976 16.6125ZM9.21328 16.6125C8.33828 16.6125 7.61328 15.8875 7.61328 15.0125C7.61328 14.125 8.32578 13.4125 9.21328 13.4125C10.1008 13.4125 10.8133 14.125 10.8133 15.0125C10.8133 15.8875 10.1008 16.6 9.21328 16.6125ZM19.1382 15.0125C19.1382 15.8875 19.8507 16.6125 20.7382 16.6125C21.6257 16.6125 22.3382 15.8875 22.3382 15.0125C22.3382 14.125 21.6257 13.4125 20.7382 13.4125C19.8507 13.4125 19.1382 14.125 19.1382 15.0125Z" fill="white"/>
</g>
</g>
</svg>
