<svg width="18" height="18" viewBox="0 0 18 18" fill="none" xmlns="http://www.w3.org/2000/svg">
<g id="Iconly/Light/Delete">
<g id="Delete">
<path id="Stroke 1" d="M14.4948 7.09961C14.4948 7.09961 14.0876 12.1509 13.8513 14.2786C13.7388 15.2949 13.1111 15.8904 12.0828 15.9091C10.1261 15.9444 8.16706 15.9466 6.21106 15.9054C5.22181 15.8851 4.60456 15.2821 4.49431 14.2839C4.25656 12.1374 3.85156 7.09961 3.85156 7.09961" stroke="white" stroke-width="1.5" stroke-linecap="round" stroke-linejoin="round"/>
<path id="Stroke 3" d="M15.531 4.67969H2.8125" stroke="white" stroke-width="1.5" stroke-linecap="round" stroke-linejoin="round"/>
<path id="Stroke 5" d="M13.079 4.67925C12.4902 4.67925 11.9832 4.263 11.8677 3.68625L11.6855 2.77425C11.573 2.3535 11.192 2.0625 10.7577 2.0625H7.58297C7.14872 2.0625 6.76772 2.3535 6.65522 2.77425L6.47297 3.68625C6.35747 4.263 5.85047 4.67925 5.26172 4.67925" stroke="white" stroke-width="1.5" stroke-linecap="round" stroke-linejoin="round"/>
</g>
</g>
</svg>
