<svg width="18" height="18" viewBox="0 0 18 18" fill="none" xmlns="http://www.w3.org/2000/svg">
<g id="Iconly/Light/Delete">
<g id="Delete">
<path id="Stroke 1" d="M14.4948 7.10156C14.4948 7.10156 14.0876 12.1528 13.8513 14.2806C13.7388 15.2968 13.1111 15.8923 12.0828 15.9111C10.1261 15.9463 8.16706 15.9486 6.21106 15.9073C5.22181 15.8871 4.60456 15.2841 4.49431 14.2858C4.25656 12.1393 3.85156 7.10156 3.85156 7.10156" stroke="#BAB6B6" stroke-width="1.5" stroke-linecap="round" stroke-linejoin="round"/>
<path id="Stroke 3" d="M15.531 4.67969H2.8125" stroke="#BAB6B6" stroke-width="1.5" stroke-linecap="round" stroke-linejoin="round"/>
<path id="Stroke 5" d="M13.079 4.67925C12.4902 4.67925 11.9832 4.263 11.8677 3.68625L11.6855 2.77425C11.573 2.3535 11.192 2.0625 10.7577 2.0625H7.58297C7.14872 2.0625 6.76772 2.3535 6.65522 2.77425L6.47297 3.68625C6.35747 4.263 5.85047 4.67925 5.26172 4.67925" stroke="#BAB6B6" stroke-width="1.5" stroke-linecap="round" stroke-linejoin="round"/>
</g>
</g>
</svg>
