<svg width="30" height="30" viewBox="0 0 30 30" fill="none" xmlns="http://www.w3.org/2000/svg">
<g id="Iconly/Bulk/Paper">
<g id="Paper">
<path id="Fill 3" d="M23.511 11.2762C22.9466 11.2762 22.1991 11.2638 21.2683 11.2638C18.9984 11.2638 17.1319 9.385 17.1319 7.09375V3.07375C17.1319 2.7575 16.8794 2.5 16.5663 2.5H9.95453C6.86896 2.5 4.375 5.0325 4.375 8.13625V21.605C4.375 24.8612 6.98778 27.5 10.212 27.5H20.0578C23.1323 27.5 25.625 24.9837 25.625 21.8775V11.8387C25.625 11.5212 25.3737 11.265 25.0594 11.2662C24.5309 11.27 23.8972 11.2762 23.511 11.2762Z" fill="#006298"/>
<path id="Fill 1" opacity="0.4" d="M20.1044 3.20921C19.7306 2.82046 19.0781 3.08796 19.0781 3.62671V6.92296C19.0781 8.30546 20.2169 9.44296 21.5994 9.44296C22.4706 9.45296 23.6806 9.45546 24.7081 9.45296C25.2344 9.45171 25.5019 8.82296 25.1369 8.44296C23.8181 7.07171 21.4569 4.61421 20.1044 3.20921Z" fill="#006298"/>
<path id="Combined Shape" fill-rule="evenodd" clip-rule="evenodd" d="M11.2191 14.2345H15.4503C15.9641 14.2345 16.3816 13.8183 16.3816 13.3045C16.3816 12.7908 15.9641 12.3733 15.4503 12.3733H11.2191C10.7053 12.3733 10.2891 12.7908 10.2891 13.3045C10.2891 13.8183 10.7053 14.2345 11.2191 14.2345ZM11.2192 20.4773H18.0242C18.5379 20.4773 18.9554 20.061 18.9554 19.5473C18.9554 19.0335 18.5379 18.616 18.0242 18.616H11.2192C10.7054 18.616 10.2892 19.0335 10.2892 19.5473C10.2892 20.061 10.7054 20.4773 11.2192 20.4773Z" fill="white"/>
</g>
</g>
</svg>
