<svg width="16" height="16" viewBox="0 0 16 16" fill="none" xmlns="http://www.w3.org/2000/svg">
<mask id="mask0" mask-type="alpha" maskUnits="userSpaceOnUse" x="1" y="1" width="15" height="15">
<path fill-rule="evenodd" clip-rule="evenodd" d="M1.33203 1.33301H15.1298V15.1123H1.33203V1.33301Z" fill="white"/>
</mask>
<g mask="url(#mask0)">
<path fill-rule="evenodd" clip-rule="evenodd" d="M5.09403 2.33301C3.15803 2.33301 2.33203 3.31701 2.33203 5.62167V10.821C2.33203 12.9437 3.50403 14.1123 5.63203 14.1123H10.82C12.9427 14.1123 14.1114 12.9437 14.1114 10.821V10.819L14.13 7.50901C14.13 5.24301 13.3527 4.35967 11.356 4.35967H9.46937C8.8367 4.35901 8.2327 4.05701 7.8527 3.55167L7.24403 2.74234C7.0527 2.48567 6.7467 2.33367 6.4267 2.33301H5.09403ZM10.82 15.1123H5.63203C2.98003 15.1123 1.33203 13.4677 1.33203 10.821V5.62167C1.33203 2.77567 2.59803 1.33301 5.09403 1.33301H6.42736C7.06136 1.33367 7.66536 1.63634 8.04403 2.14234L8.65136 2.95034C8.84403 3.20634 9.15003 3.35901 9.47003 3.35967H11.356C13.9307 3.35967 15.13 4.67901 15.13 7.51167L15.1114 10.823C15.1107 13.4683 13.4667 15.1123 10.82 15.1123Z" fill="#2B304D" fill-opacity="0.5"/>
</g>
<path fill-rule="evenodd" clip-rule="evenodd" d="M11.1436 10.4746H5.32031C5.04431 10.4746 4.82031 10.2506 4.82031 9.97461C4.82031 9.69861 5.04431 9.47461 5.32031 9.47461H11.1436C11.4196 9.47461 11.6436 9.69861 11.6436 9.97461C11.6436 10.2506 11.4196 10.4746 11.1436 10.4746Z" fill="#2B304D" fill-opacity="0.5"/>
</svg>
