<svg width="16" height="16" viewBox="0 0 16 16" fill="none" xmlns="http://www.w3.org/2000/svg">
<g id="Iconly/Light-Outline/Ticket Star">
<g id="Ticket Star">
<g id="Group 3">
<mask id="mask0" mask-type="alpha" maskUnits="userSpaceOnUse" x="1" y="2" width="14" height="13">
<path id="Clip 2" fill-rule="evenodd" clip-rule="evenodd" d="M1.33203 2H14.6654V14.1107H1.33203V2Z" fill="white"/>
</mask>
<g mask="url(#mask0)">
<path id="Fill 1" fill-rule="evenodd" clip-rule="evenodd" d="M2.33203 9.986V11.3493C2.33203 11.82 2.5147 12.262 2.84736 12.5947C3.18003 12.9273 3.6227 13.1107 4.0927 13.1107H11.9034C12.874 13.1107 13.6647 12.3213 13.6654 11.3507V9.98533C12.808 9.76333 12.1727 8.98267 12.172 8.05667C12.172 7.13067 12.8074 6.35 13.6647 6.12733L13.6654 4.764C13.666 3.792 12.8774 3.00067 11.906 3H4.0947C3.12336 3 2.3327 3.79 2.33203 4.76133V6.17267C2.65603 6.25 2.9567 6.40933 3.2067 6.64267C3.58603 6.99667 3.8047 7.47667 3.82336 7.99533C3.82536 8.97267 3.19003 9.762 2.33203 9.986ZM11.9034 14.1107H4.09336C3.35536 14.1107 2.66203 13.824 2.14003 13.302C1.6187 12.78 1.33203 12.0867 1.33203 11.3493V9.54933C1.33203 9.27333 1.55603 9.04933 1.83203 9.04933C2.38136 9.04867 2.82536 8.60333 2.8247 8.05667C2.81536 7.778 2.7087 7.546 2.5247 7.374C2.34136 7.202 2.10403 7.108 1.84936 7.122C1.71136 7.12333 1.58203 7.076 1.4847 6.982C1.38736 6.888 1.33203 6.75733 1.33203 6.622V4.762C1.3327 3.23867 2.57203 2 4.0947 2H11.9027C13.4294 2.00067 14.6667 3.242 14.6654 4.76467V6.564C14.6654 6.84 14.4414 7.064 14.1654 7.064C13.618 7.064 13.172 7.50933 13.172 8.056C13.1727 8.604 13.618 9.04933 14.1654 9.04933C14.4414 9.04933 14.6654 9.27333 14.6654 9.54933V11.3493C14.6647 12.872 13.4254 14.1107 11.9034 14.1107Z" fill="#2B304D" fill-opacity="0.5"/>
</g>
</g>
<path id="Fill 4" fill-rule="evenodd" clip-rule="evenodd" d="M6.73371 7.58707L7.07304 7.91774C7.25704 8.0984 7.34038 8.35574 7.29638 8.60707L7.21638 9.0724L7.63571 8.85174C7.86171 8.73107 8.13304 8.73174 8.36104 8.85307L8.77771 9.07174L8.69771 8.60574C8.65571 8.3504 8.73971 8.09507 8.92171 7.91774L9.26104 7.58707L8.79104 7.51907C8.53904 7.4824 8.32038 7.32374 8.20771 7.09374L7.99771 6.66907L7.78771 7.0944C7.67504 7.32374 7.45638 7.4824 7.20304 7.51907L6.73371 7.58707ZM9.0766 10.2577C8.9526 10.2577 8.8286 10.2277 8.71393 10.167L7.99793 9.7917L7.28127 10.1677C7.01727 10.3057 6.70327 10.2837 6.46327 10.109C6.2226 9.9337 6.1046 9.64303 6.1546 9.3497L6.29127 8.55236L5.71193 7.9877C5.49927 7.78036 5.42327 7.4757 5.5146 7.19303C5.6066 6.9097 5.8466 6.70636 6.1406 6.6637L6.94327 6.54636L7.30127 5.82036C7.4326 5.5537 7.69927 5.3877 7.99793 5.3877C8.29527 5.3877 8.5626 5.5537 8.69393 5.82103L9.0526 6.54636L9.85393 6.6637C10.1486 6.70636 10.3893 6.9097 10.4806 7.19303C10.5719 7.4757 10.4966 7.78036 10.2833 7.98836L9.70327 8.55303L9.8406 9.3497C9.8906 9.6437 9.77193 9.93503 9.5306 10.1097C9.3946 10.2077 9.23593 10.2577 9.0766 10.2577Z" fill="#2B304D" fill-opacity="0.5"/>
</g>
</g>
</svg>
