<svg width="14" height="13" viewBox="0 0 14 13" fill="none" xmlns="http://www.w3.org/2000/svg">
<mask id="mask0" mask-type="alpha" maskUnits="userSpaceOnUse" x="0" y="0" width="14" height="13">
<path fill-rule="evenodd" clip-rule="evenodd" d="M0.332031 0H13.6654V12.1107H0.332031V0Z" fill="white"/>
</mask>
<g mask="url(#mask0)">
<path fill-rule="evenodd" clip-rule="evenodd" d="M1.33203 7.986V9.34933C1.33203 9.82 1.5147 10.262 1.84736 10.5947C2.18003 10.9273 2.6227 11.1107 3.0927 11.1107H10.9034C11.874 11.1107 12.6647 10.3213 12.6654 9.35067V7.98533C11.808 7.76333 11.1727 6.98267 11.172 6.05667C11.172 5.13067 11.8074 4.35 12.6647 4.12733L12.6654 2.764C12.666 1.792 11.8774 1.00067 10.906 1H3.0947C2.12336 1 1.3327 1.79 1.33203 2.76133V4.17267C1.65603 4.25 1.9567 4.40933 2.2067 4.64267C2.58603 4.99667 2.8047 5.47667 2.82336 5.99533C2.82536 6.97267 2.19003 7.762 1.33203 7.986ZM10.9034 12.1107H3.09336C2.35536 12.1107 1.66203 11.824 1.14003 11.302C0.618698 10.78 0.332031 10.0867 0.332031 9.34933V7.54933C0.332031 7.27333 0.556031 7.04933 0.832031 7.04933C1.38136 7.04867 1.82536 6.60333 1.8247 6.05667C1.81536 5.778 1.7087 5.546 1.5247 5.374C1.34136 5.202 1.10403 5.108 0.849365 5.122C0.711365 5.12333 0.582031 5.076 0.484698 4.982C0.387365 4.888 0.332031 4.75733 0.332031 4.622V2.762C0.332698 1.23867 1.57203 0 3.0947 0H10.9027C12.4294 0.000666667 13.6667 1.242 13.6654 2.76467V4.564C13.6654 4.84 13.4414 5.064 13.1654 5.064C12.618 5.064 12.172 5.50933 12.172 6.056C12.1727 6.604 12.618 7.04933 13.1654 7.04933C13.4414 7.04933 13.6654 7.27333 13.6654 7.54933V9.34933C13.6647 10.872 12.4254 12.1107 10.9034 12.1107Z" fill="#2B304D" fill-opacity="0.5"/>
</g>
<path fill-rule="evenodd" clip-rule="evenodd" d="M5.73371 5.58707L6.07304 5.91774C6.25704 6.0984 6.34038 6.35574 6.29638 6.60707L6.21638 7.0724L6.63571 6.85174C6.86171 6.73107 7.13304 6.73174 7.36104 6.85307L7.77771 7.07174L7.69771 6.60574C7.65571 6.3504 7.73971 6.09507 7.92171 5.91774L8.26104 5.58707L7.79104 5.51907C7.53904 5.4824 7.32038 5.32374 7.20771 5.09374L6.99771 4.66907L6.78771 5.0944C6.67504 5.32374 6.45638 5.4824 6.20304 5.51907L5.73371 5.58707ZM8.0766 8.2577C7.9526 8.2577 7.8286 8.2277 7.71393 8.16703L6.99793 7.7917L6.28127 8.1677C6.01727 8.3057 5.70327 8.2837 5.46327 8.10903C5.2226 7.9337 5.1046 7.64303 5.1546 7.3497L5.29127 6.55236L4.71193 5.9877C4.49927 5.78036 4.42327 5.4757 4.5146 5.19303C4.6066 4.9097 4.8466 4.70636 5.1406 4.6637L5.94327 4.54636L6.30127 3.82036C6.4326 3.5537 6.69927 3.3877 6.99793 3.3877C7.29527 3.3877 7.5626 3.5537 7.69393 3.82103L8.0526 4.54636L8.85393 4.6637C9.1486 4.70636 9.38927 4.9097 9.4806 5.19303C9.57193 5.4757 9.4966 5.78036 9.28327 5.98836L8.70327 6.55303L8.8406 7.3497C8.8906 7.6437 8.77193 7.93503 8.5306 8.1097C8.3946 8.2077 8.23593 8.2577 8.0766 8.2577Z" fill="#2B304D" fill-opacity="0.5"/>
</svg>
