<svg width="15" height="15" viewBox="0 0 15 15" fill="none" xmlns="http://www.w3.org/2000/svg">
<mask id="mask0" mask-type="alpha" maskUnits="userSpaceOnUse" x="0" y="0" width="15" height="15">
<path fill-rule="evenodd" clip-rule="evenodd" d="M0.332031 0.333008H14.1298V14.1123H0.332031V0.333008Z" fill="white"/>
</mask>
<g mask="url(#mask0)">
<path fill-rule="evenodd" clip-rule="evenodd" d="M4.09403 1.33301C2.15803 1.33301 1.33203 2.31701 1.33203 4.62167V9.82101C1.33203 11.9437 2.50403 13.1123 4.63203 13.1123H9.82003C11.9427 13.1123 13.1114 11.9437 13.1114 9.82101V9.81901L13.13 6.50901C13.13 4.24301 12.3527 3.35967 10.356 3.35967H8.46937C7.8367 3.35901 7.2327 3.05701 6.8527 2.55167L6.24403 1.74234C6.0527 1.48567 5.7467 1.33367 5.4267 1.33301H4.09403ZM9.82003 14.1123H4.63203C1.98003 14.1123 0.332031 12.4677 0.332031 9.82101V4.62167C0.332031 1.77567 1.59803 0.333008 4.09403 0.333008H5.42736C6.06136 0.333674 6.66536 0.636341 7.04403 1.14234L7.65136 1.95034C7.84403 2.20634 8.15003 2.35901 8.47003 2.35967H10.356C12.9307 2.35967 14.13 3.67901 14.13 6.51167L14.1114 9.82301C14.1107 12.4683 12.4667 14.1123 9.82003 14.1123Z" fill="#2B304D" fill-opacity="0.5"/>
</g>
<path fill-rule="evenodd" clip-rule="evenodd" d="M10.1436 9.47461H4.32031C4.04431 9.47461 3.82031 9.25061 3.82031 8.97461C3.82031 8.69861 4.04431 8.47461 4.32031 8.47461H10.1436C10.4196 8.47461 10.6436 8.69861 10.6436 8.97461C10.6436 9.25061 10.4196 9.47461 10.1436 9.47461Z" fill="#2B304D" fill-opacity="0.5"/>
</svg>
