<svg width="16" height="12" viewBox="0 0 16 12" fill="none" xmlns="http://www.w3.org/2000/svg">
<path d="M9.23177 0.833984V2.44732" stroke="#2B304D" stroke-opacity="0.5" stroke-linecap="round" stroke-linejoin="round"/>
<path d="M9.23177 9.84082V11.1902" stroke="#2B304D" stroke-opacity="0.5" stroke-linecap="round" stroke-linejoin="round"/>
<path d="M9.23177 7.54994V4.33594" stroke="#2B304D" stroke-opacity="0.5" stroke-linecap="round" stroke-linejoin="round"/>
<path fill-rule="evenodd" clip-rule="evenodd" d="M12.4668 11.3337C13.6815 11.3337 14.6654 10.362 14.6654 9.16242V7.43408C13.8616 7.43408 13.2142 6.7948 13.2142 6.00101C13.2142 5.20723 13.8616 4.56725 14.6654 4.56725L14.6647 2.83823C14.6647 1.63862 13.6801 0.666992 12.4661 0.666992H3.53131C2.31729 0.666992 1.33273 1.63862 1.33273 2.83823L1.33203 4.62356C2.13581 4.62356 2.78315 5.20723 2.78315 6.00101C2.78315 6.7948 2.13581 7.43408 1.33203 7.43408V9.16242C1.33203 10.362 2.3159 11.3337 3.53061 11.3337H12.4668Z" stroke="#2B304D" stroke-opacity="0.5" stroke-linecap="round" stroke-linejoin="round"/>
</svg>
