<svg width="14" height="14" viewBox="0 0 14 14" fill="none" xmlns="http://www.w3.org/2000/svg">
<path fill-rule="evenodd" clip-rule="evenodd" d="M6.99609 10.6181C6.72009 10.6181 6.49609 10.3941 6.49609 10.1181V8.42676C6.49609 8.15076 6.72009 7.92676 6.99609 7.92676C7.27209 7.92676 7.49609 8.15076 7.49609 8.42676V10.1181C7.49609 10.3941 7.27209 10.6181 6.99609 10.6181Z" fill="#2B304D" fill-opacity="0.5"/>
<mask id="mask0" mask-type="alpha" maskUnits="userSpaceOnUse" x="0" y="2" width="14" height="7">
<path fill-rule="evenodd" clip-rule="evenodd" d="M0.332031 2.05371H13.6586V8.92771H0.332031V2.05371Z" fill="white"/>
</mask>
<g mask="url(#mask0)">
<path fill-rule="evenodd" clip-rule="evenodd" d="M1.33203 6.59571C2.91603 7.45638 4.91336 7.92771 6.99203 7.92771C9.0747 7.92771 11.074 7.45638 12.6587 6.59571V4.59438C12.6587 3.74438 11.9714 3.05371 11.1254 3.05371H2.87203C2.0227 3.05371 1.33203 3.74171 1.33203 4.58771V6.59571ZM6.99203 8.92771C4.6287 8.92771 2.3507 8.35571 0.579365 7.31838C0.426031 7.22904 0.332031 7.06504 0.332031 6.88704V4.58771C0.332031 3.19038 1.47136 2.05371 2.87203 2.05371H11.1254C12.5227 2.05371 13.6587 3.19304 13.6587 4.59438V6.88704C13.6587 7.06504 13.564 7.22904 13.4114 7.31838C11.64 8.35571 9.36003 8.92771 6.99203 8.92771Z" fill="#2B304D" fill-opacity="0.5"/>
</g>
<mask id="mask1" mask-type="alpha" maskUnits="userSpaceOnUse" x="4" y="0" width="6" height="4">
<path fill-rule="evenodd" clip-rule="evenodd" d="M4.16406 0.333984H9.83073V3.05125H4.16406V0.333984Z" fill="white"/>
</mask>
<g mask="url(#mask1)">
<path fill-rule="evenodd" clip-rule="evenodd" d="M9.33073 3.05132C9.05473 3.05132 8.83073 2.82732 8.83073 2.55132V2.30732C8.83073 1.77065 8.39406 1.33398 7.8574 1.33398H6.1374C5.60073 1.33398 5.16406 1.77065 5.16406 2.30732V2.55132C5.16406 2.82732 4.94006 3.05132 4.66406 3.05132C4.38806 3.05132 4.16406 2.82732 4.16406 2.55132V2.30732C4.16406 1.21932 5.0494 0.333984 6.1374 0.333984H7.8574C8.94539 0.333984 9.83073 1.21932 9.83073 2.30732V2.55132C9.83073 2.82732 9.60673 3.05132 9.33073 3.05132Z" fill="#2B304D" fill-opacity="0.5"/>
</g>
<path fill-rule="evenodd" clip-rule="evenodd" d="M10.8617 13.4937H3.12841C1.74508 13.4937 0.580414 12.413 0.475747 11.033L0.349081 9.36032C0.328414 9.08499 0.535081 8.84432 0.810414 8.82366C1.08708 8.81366 1.32575 9.00899 1.34708 9.28499L1.47308 10.957C1.53841 11.8183 2.26508 12.4937 3.12841 12.4937H10.8617C11.7251 12.4937 12.4524 11.8183 12.5171 10.957L12.6437 9.28499C12.6651 9.00899 12.9097 8.81299 13.1804 8.82366C13.4557 8.84432 13.6617 9.08499 13.6411 9.36032L13.5144 11.033C13.4097 12.413 12.2451 13.4937 10.8617 13.4937Z" fill="#2B304D" fill-opacity="0.5"/>
</svg>
