<svg width="34" height="34" viewBox="0 0 34 34" fill="none" xmlns="http://www.w3.org/2000/svg">
<circle opacity="0.2" cx="17" cy="17" r="17" fill="#51B74F"/>
<mask id="mask0" mask-type="alpha" maskUnits="userSpaceOnUse" x="11" y="18" width="12" height="6">
<path fill-rule="evenodd" clip-rule="evenodd" d="M11.668 18.6641H22.2279V23.5801H11.668V18.6641Z" fill="white"/>
</mask>
<g mask="url(#mask0)">
<path fill-rule="evenodd" clip-rule="evenodd" d="M16.9486 19.6641C14.108 19.6641 12.668 20.1521 12.668 21.1154C12.668 22.0874 14.108 22.5801 16.9486 22.5801C19.7886 22.5801 21.228 22.0921 21.228 21.1287C21.228 20.1567 19.7886 19.6641 16.9486 19.6641ZM16.9486 23.5801C15.6426 23.5801 11.668 23.5801 11.668 21.1154C11.668 18.9181 14.682 18.6641 16.9486 18.6641C18.2546 18.6641 22.228 18.6641 22.228 21.1287C22.228 23.3261 19.2146 23.5801 16.9486 23.5801Z" fill="#2B304D" fill-opacity="0.5"/>
</g>
<mask id="mask1" mask-type="alpha" maskUnits="userSpaceOnUse" x="13" y="10" width="8" height="8">
<path fill-rule="evenodd" clip-rule="evenodd" d="M13.4062 10.333H20.4863V17.4121H13.4062V10.333Z" fill="white"/>
</mask>
<g mask="url(#mask1)">
<path fill-rule="evenodd" clip-rule="evenodd" d="M16.947 11.2849C15.5197 11.2849 14.3584 12.4456 14.3584 13.8729C14.3537 15.2956 15.5064 16.4556 16.9277 16.4609L16.947 16.9369V16.4609C18.3737 16.4609 19.5344 15.2996 19.5344 13.8729C19.5344 12.4456 18.3737 11.2849 16.947 11.2849ZM16.9469 17.4123H16.9256C14.9776 17.4063 13.3996 15.8177 13.4063 13.871C13.4063 11.921 14.9943 10.333 16.9469 10.333C18.8989 10.333 20.4863 11.921 20.4863 13.873C20.4863 15.825 18.8989 17.4123 16.9469 17.4123Z" fill="#2B304D" fill-opacity="0.5"/>
</g>
</svg>
