<svg width="16" height="16" viewBox="0 0 16 16" fill="none" xmlns="http://www.w3.org/2000/svg">
<path fill-rule="evenodd" clip-rule="evenodd" d="M2 4.33333C2 2.58319 2.01874 2 4.33333 2C6.64793 2 6.66667 2.58319 6.66667 4.33333C6.66667 6.08348 6.67405 6.66667 4.33333 6.66667C1.99262 6.66667 2 6.08348 2 4.33333Z" stroke="#2B304D" stroke-opacity="0.5" stroke-linecap="round" stroke-linejoin="round"/>
<path fill-rule="evenodd" clip-rule="evenodd" d="M9.33203 4.33333C9.33203 2.58319 9.35077 2 11.6654 2C13.98 2 13.9987 2.58319 13.9987 4.33333C13.9987 6.08348 14.0061 6.66667 11.6654 6.66667C9.32465 6.66667 9.33203 6.08348 9.33203 4.33333Z" stroke="#2B304D" stroke-opacity="0.5" stroke-linecap="round" stroke-linejoin="round"/>
<path fill-rule="evenodd" clip-rule="evenodd" d="M2 11.6663C2 9.9162 2.01874 9.33301 4.33333 9.33301C6.64793 9.33301 6.66667 9.9162 6.66667 11.6663C6.66667 13.4165 6.67405 13.9997 4.33333 13.9997C1.99262 13.9997 2 13.4165 2 11.6663Z" stroke="#2B304D" stroke-opacity="0.5" stroke-linecap="round" stroke-linejoin="round"/>
<path fill-rule="evenodd" clip-rule="evenodd" d="M9.33203 11.6663C9.33203 9.9162 9.35077 9.33301 11.6654 9.33301C13.98 9.33301 13.9987 9.9162 13.9987 11.6663C13.9987 13.4165 14.0061 13.9997 11.6654 13.9997C9.32465 13.9997 9.33203 13.4165 9.33203 11.6663Z" stroke="#2B304D" stroke-opacity="0.5" stroke-linecap="round" stroke-linejoin="round"/>
</svg>
